HIERARCHY
ROOT Hips
{
	OFFSET 50.124599 8.402761 54.827000
	CHANNELS 6 Xposition Yposition Zposition Xrotation Yrotation Zrotation
	JOINT spine
	{
		OFFSET 0.000000 -0.342408 5.954380
		CHANNELS 3 Xrotation Yrotation Zrotation
		JOINT spine1
		{
			OFFSET 0.000000 -0.000002 8.856018
			CHANNELS 3 Xrotation Yrotation Zrotation
			JOINT spine2
			{
				OFFSET 0.000000 -0.000001 8.485672
				CHANNELS 3 Xrotation Yrotation Zrotation
				JOINT Neck
				{
					OFFSET 0.000000 -1.038704 21.786301
					CHANNELS 3 Xrotation Yrotation Zrotation
					JOINT Head
					{
						OFFSET 0.000000 -0.000001 6.582199
						CHANNELS 3 Xrotation Yrotation Zrotation
						End Site
						{
							OFFSET 0.000000 5.254357 15.932602
						}
					}
				}
				JOINT RightShoulder
				{
					OFFSET -3.573071 0.497523 9.163857
					CHANNELS 3 Xrotation Yrotation Zrotation
					JOINT RightArm
					{
						OFFSET 0.000000 -0.000002 12.019203
						CHANNELS 3 Xrotation Yrotation Zrotation
						JOINT RightArmRoll
						{
							OFFSET 0.000000 -0.000001 6.067551
							CHANNELS 3 Xrotation Yrotation Zrotation
							JOINT RightForeArm
							{
								OFFSET 0.000000 -0.000003 17.672600
								CHANNELS 3 Xrotation Yrotation Zrotation
								JOINT RightForeArmRoll
								{
									OFFSET 0.000000 -0.000001 6.808716
									CHANNELS 3 Xrotation Yrotation Zrotation
									JOINT RightHand
									{
										OFFSET 0.000000 -0.000003 13.663605
										CHANNELS 3 Xrotation Yrotation Zrotation
										End Site
										{
											OFFSET 0.000000 0.000000 0.100006
										}
									}
								}
							}
						}
					}
				}
				JOINT LeftShoulder
				{
					OFFSET 3.573071 0.497523 9.163857
					CHANNELS 3 Xrotation Yrotation Zrotation
					JOINT LeftArm
					{
						OFFSET 0.000000 -0.000002 12.019203
						CHANNELS 3 Xrotation Yrotation Zrotation
						JOINT LeftArmRoll
						{
							OFFSET 0.000000 -0.000001 6.067551
							CHANNELS 3 Xrotation Yrotation Zrotation
							JOINT LeftForeArm
							{
								OFFSET 0.000000 -0.000003 17.672600
								CHANNELS 3 Xrotation Yrotation Zrotation
								JOINT LeftForeArmRoll
								{
									OFFSET 0.000000 -0.000001 6.808716
									CHANNELS 3 Xrotation Yrotation Zrotation
									JOINT LeftHand
									{
										OFFSET 0.000000 -0.000003 13.663605
										CHANNELS 3 Xrotation Yrotation Zrotation
										End Site
										{
											OFFSET 0.000000 0.000000 0.100006
										}
									}
								}
							}
						}
					}
				}
			}
		}
	}
	JOINT RightUpLeg
	{
		OFFSET -5.277740 0.811858 -0.967796
		CHANNELS 3 Xrotation Yrotation Zrotation
		JOINT RightUpLegRoll
		{
			OFFSET 0.000000 -0.000003 16.021397
			CHANNELS 3 Xrotation Yrotation Zrotation
			JOINT RightLeg
			{
				OFFSET 0.000000 0.000003 -19.840099
				CHANNELS 3 Xrotation Yrotation Zrotation
				JOINT RightLegRoll
				{
					OFFSET 0.000000 -0.000003 19.905003
					CHANNELS 3 Xrotation Yrotation Zrotation
					JOINT RightFoot
					{
						OFFSET 0.000000 -0.000003 16.567497
						CHANNELS 3 Xrotation Yrotation Zrotation
						JOINT RightToeBase
						{
							OFFSET 0.000000 -0.000002 13.849602
							CHANNELS 3 Xrotation Yrotation Zrotation
							End Site
							{
								OFFSET 0.005871 0.773115 6.707283
							}
						}
					}
				}
			}
		}
	}
	JOINT LeftUpLeg
	{
		OFFSET 5.277740 0.811858 -0.967796
		CHANNELS 3 Xrotation Yrotation Zrotation
		JOINT LeftUpLegRoll
		{
			OFFSET 0.000000 -0.000003 16.021503
			CHANNELS 3 Xrotation Yrotation Zrotation
			JOINT LeftLeg
			{
				OFFSET 0.000000 -0.000003 19.839996
				CHANNELS 3 Xrotation Yrotation Zrotation
				JOINT LeftLegRoll
				{
					OFFSET 0.000000 -0.000004 20.089005
					CHANNELS 3 Xrotation Yrotation Zrotation
					JOINT LeftFoot
					{
						OFFSET 0.000000 -0.000003 16.383499
						CHANNELS 3 Xrotation Yrotation Zrotation
						JOINT LeftToeBase
						{
							OFFSET 0.000000 -0.000002 13.849594
							CHANNELS 3 Xrotation Yrotation Zrotation
							End Site
							{
								OFFSET -0.026310 0.773116 6.707275
							}
						}
					}
				}
			}
		}
	}
}
MOTION
Frames: 6
Frame Time: 0.041667
49.206097 9.874742 54.135201 0.052363 2.443306 4.734968 -0.321483 -0.726163 0.024965 3.361028 -1.450212 0.051936 5.006316 -1.449303 0.067114 2.357097 -5.776481 -4.190662 7.601872 1.065435 -3.140546 -6.911211 -79.433830 -9.570273 -77.618755 -127.297528 -80.028725 0.000001 0.000000 0.000000 -0.036651 3.688061 -1.990722 0.000005 0.000004 -3.011611 -5.000173 -7.999930 0.000036 -9.622776 59.246939 11.328828 -50.432925 132.531474 65.648192 0.000003 0.000004 0.000000 -0.028725 -3.641280 1.990857 -0.000004 -0.000012 3.011598 -5.000157 7.999950 -0.000013 -86.801712 -180.801227 -1.168666 -179.999991 0.000005 -0.980992 104.734653 2.499328 -1.924197 0.000004 -0.000002 1.678240 70.565348 6.972611 1.800558 25.456964 -7.355618 0.000001 -88.768991 183.821947 3.282878 -0.000005 -0.000004 -1.157520 -78.174022 -4.674872 -0.721563 -0.000010 0.000003 -1.571920 63.691992 -7.336448 -1.446754 25.456849 7.355619 0.000004 
49.223595 9.865353 54.136200 -0.067108 2.421016 4.714067 -0.322853 -0.725191 0.024717 3.358414 -1.447990 0.051806 5.003699 -1.447037 0.066976 2.467667 -5.720714 -4.197134 7.625860 1.023045 -3.158676 -7.154914 -79.426098 -9.827593 -77.611200 -127.299713 -80.035487 -0.000001 -0.000000 0.000001 -0.036803 3.684690 -1.990724 0.000005 0.000005 -3.011610 -5.000175 -7.999931 0.000035 -9.633877 59.325855 11.346777 -50.466311 132.486381 65.641594 0.000001 0.000003 0.000001 -0.028923 -3.643672 1.990862 -0.000005 -0.000010 3.011598 -5.000156 7.999949 -0.000014 -86.739632 -180.808973 -1.156416 -179.999991 0.000005 -0.984994 104.646114 2.518446 -1.913695 0.000004 -0.000002 1.681360 70.550089 6.973133 1.800605 25.456962 -7.355616 0.000001 -88.681141 183.824624 3.266144 -0.000005 -0.000004 -1.163170 -78.296951 -4.687942 -0.732291 -0.000012 0.000004 -1.574770 63.675634 -7.337230 -1.446144 25.456844 7.355619 0.000003 
49.230995 9.880283 54.129002 -0.186893 2.399324 4.693055 -0.324036 -0.724260 0.024473 3.356180 -1.445847 0.051696 5.001473 -1.444870 0.066867 2.576606 -5.665802 -4.203803 7.650646 0.981242 -3.176652 -7.398555 -79.418366 -10.084889 -77.602553 -127.300137 -80.041354 -0.000001 0.000000 0.000000 -0.036940 3.681320 -1.990728 0.000003 0.000005 -3.011609 -5.000174 -7.999930 0.000037 -9.646109 59.403084 11.365961 -50.496893 132.441849 65.634109 0.000003 0.000004 -0.000000 -0.029189 -3.646410 1.990864 -0.000005 -0.000009 3.011599 -5.000153 7.999949 -0.000012 -86.677136 -180.817019 -1.143795 -179.999991 0.000005 -0.989994 104.556645 2.537799 -1.902162 0.000005 -0.000002 1.684500 70.534612 6.973678 1.800570 25.456960 -7.355618 0.000001 -88.592178 183.827056 3.249339 -0.000005 -0.000004 -1.168860 -78.419977 -4.701353 -0.743119 -0.000010 0.000003 -1.577600 63.659187 -7.337988 -1.445636 25.456846 7.355619 0.000002 
49.245895 9.876391 54.125504 -0.306839 2.378223 4.671954 -0.325068 -0.723348 0.024237 3.354256 -1.443743 0.051601 4.999538 -1.442742 0.066777 2.684580 -5.612433 -4.210482 7.675539 0.940559 -3.194254 -7.641301 -79.411071 -10.341290 -77.592937 -127.298429 -80.046368 0.000001 0.000000 0.000000 -0.037046 3.677989 -1.990723 0.000006 0.000005 -3.011611 -5.000172 -7.999930 0.000037 -9.658868 59.478162 11.385646 -50.523367 132.398231 65.624212 0.000004 0.000004 0.000001 -0.029488 -3.649310 1.990862 -0.000005 -0.000010 3.011597 -5.000154 7.999947 -0.000012 -86.614394 -180.825283 -1.130398 -179.999991 0.000005 -0.993996 104.466685 2.557191 -1.890605 0.000005 -0.000003 1.687670 70.518944 6.974252 1.800553 25.456965 -7.355619 0.000001 -88.502552 183.829241 3.232963 -0.000005 -0.000004 -1.174570 -78.542886 -4.715071 -0.754238 -0.000011 0.000004 -1.580420 63.642733 -7.338790 -1.445034 25.456848 7.355620 0.000002 
49.255196 9.885192 54.121498 -0.426810 2.357691 4.650780 -0.325993 -0.722430 0.024010 3.352552 -1.441640 0.051514 4.997834 -1.440634 0.066702 2.792262 -5.561311 -4.216978 7.699819 0.901548 -3.211255 -7.882178 -79.404330 -10.595771 -77.582179 -127.293908 -80.050247 -0.000000 -0.000000 0.000000 -0.037120 3.674740 -1.990731 0.000006 0.000005 -3.011609 -5.000173 -7.999930 0.000037 -9.671603 59.550616 11.405125 -50.545275 132.355269 65.611603 0.000001 0.000004 0.000002 -0.029801 -3.652210 1.990860 -0.000005 -0.000011 3.011599 -5.000156 7.999946 -0.000011 -86.551201 -180.833725 -1.116803 -179.999991 0.000005 -0.997985 104.376704 2.576179 -1.879965 0.000004 -0.000003 1.690841 70.503268 6.974815 1.800533 25.456964 -7.355619 0.000000 -88.412728 183.831277 3.217189 -0.000005 -0.000004 -1.180280 -78.665433 -4.728982 -0.765349 -0.000010 0.000004 -1.583240 63.626286 -7.339630 -1.444344 25.456849 7.355619 0.000002 
49.258492 9.933663 54.128002 -0.546650 2.337711 4.629530 -0.326854 -0.721484 0.023792 3.350979 -1.439495 0.051432 4.996258 -1.438506 0.066629 2.900347 -5.513113 -4.223097 7.722766 0.864758 -3.227435 -8.120341 -79.398579 -10.847443 -77.570301 -127.286026 -80.052966 -0.000000 -0.000000 0.000001 -0.037153 3.671610 -1.990730 0.000004 0.000005 -3.011611 -5.000174 -7.999929 0.000038 -9.683765 59.620113 11.423727 -50.562162 132.312690 65.596105 0.000003 0.000003 0.000000 -0.030108 -3.654931 1.990861 -0.000006 -0.000009 3.011597 -5.000156 7.999948 -0.000013 -86.487619 -180.842277 -1.102722 -179.999991 0.000005 -1.002985 104.286716 2.595276 -1.868297 0.000004 -0.000003 1.694030 70.487607 6.975409 1.800417 25.456962 -7.355617 0.000001 -88.323157 183.833298 3.201622 -0.000005 -0.000004 -1.185980 -78.787195 -4.743124 -0.776736 -0.000011 0.000003 -1.586090 63.609941 -7.340440 -1.443741 25.456849 7.355618 0.000003 
